<svg xmlns="http://www.w3.org/2000/svg" viewBox="1.515 1.01 174.162 173.369" xmlns:bx="https://boxy-svg.com">
  <defs>
    <filter id="filter0_d" x="-8.39411" y="15.8291" width="116.727" height="92.2456" filterUnits="userSpaceOnUse" color-interpolation-filters="sRGB">
      <feFlood flood-opacity="0" result="BackgroundImageFix"></feFlood>
      <feColorMatrix in="SourceAlpha" type="matrix" values="0 0 0 0 0 0 0 0 0 0 0 0 0 0 0 0 0 0 127 0"></feColorMatrix>
      <feOffset></feOffset>
      <feGaussianBlur stdDeviation="4.16667"></feGaussianBlur>
      <feColorMatrix type="matrix" values="0 0 0 0 0 0 0 0 0 0 0 0 0 0 0 0 0 0 0.25 0"></feColorMatrix>
      <feBlend mode="overlay" in2="BackgroundImageFix" result="effect1_dropShadow"></feBlend>
      <feBlend mode="normal" in="SourceGraphic" in2="effect1_dropShadow" result="shape"></feBlend>
    </filter>
    <filter id="filter1_d" x="60.4167" y="-8.07558" width="47.9167" height="116.151" filterUnits="userSpaceOnUse" color-interpolation-filters="sRGB">
      <feFlood flood-opacity="0" result="BackgroundImageFix"></feFlood>
      <feColorMatrix in="SourceAlpha" type="matrix" values="0 0 0 0 0 0 0 0 0 0 0 0 0 0 0 0 0 0 127 0"></feColorMatrix>
      <feOffset></feOffset>
      <feGaussianBlur stdDeviation="4.16667"></feGaussianBlur>
      <feColorMatrix type="matrix" values="0 0 0 0 0 0 0 0 0 0 0 0 0 0 0 0 0 0 0.25 0"></feColorMatrix>
      <feBlend mode="overlay" in2="BackgroundImageFix" result="effect1_dropShadow"></feBlend>
      <feBlend mode="normal" in="SourceGraphic" in2="effect1_dropShadow" result="shape"></feBlend>
    </filter>
    <linearGradient id="paint0_linear" x1="49.9392" y1="0.257812" x2="49.9392" y2="99.7423" gradientUnits="userSpaceOnUse">
      <stop stop-color="white"></stop>
      <stop offset="1" stop-color="white" stop-opacity="0"></stop>
    </linearGradient>
    <bx:export>
      <bx:file format="png"></bx:file>
      <bx:file format="svg"></bx:file>
    </bx:export>
  </defs>
  <g mask="url(#mask0)" transform="matrix(1.727348, 0, 0, 1.727348, 1.977703, 1.29908)" style="">
    <path d="M96.4614 10.7962L75.8569 0.875542C73.4719 -0.272773 70.6217 0.211611 68.75 2.08333L1.29858 63.5832C-0.515693 65.2373 -0.513607 68.0937 1.30308 69.7452L6.81272 74.754C8.29793 76.1042 10.5347 76.2036 12.1338 74.9905L93.3609 13.3699C96.086 11.3026 100 13.2462 100 16.6667V16.4275C100 14.0265 98.6246 11.8378 96.4614 10.7962Z" fill="#0065A9"></path>
    <g filter="url(#filter0_d)">
      <path d="M96.4614 89.2038L75.8569 99.1245C73.4719 100.273 70.6217 99.7884 68.75 97.9167L1.29858 36.4169C-0.515693 34.7627 -0.513607 31.9063 1.30308 30.2548L6.81272 25.246C8.29793 23.8958 10.5347 23.7964 12.1338 25.0095L93.3609 86.6301C96.086 88.6974 100 86.7538 100 83.3334V83.5726C100 85.9735 98.6246 88.1622 96.4614 89.2038Z" fill="#007ACC"></path>
    </g>
    <g filter="url(#filter1_d)">
      <path d="M75.8578 99.1263C73.4721 100.274 70.6219 99.7885 68.75 97.9166C71.0564 100.223 75 98.5895 75 95.3278V4.67213C75 1.41039 71.0564 -0.223106 68.75 2.08329C70.6219 0.211402 73.4721 -0.273666 75.8578 0.873633L96.4587 10.7807C98.6234 11.8217 100 14.0112 100 16.4132V83.5871C100 85.9891 98.6234 88.1786 96.4586 89.2196L75.8578 99.1263Z" fill="#1F9CF0"></path>
    </g>
    <g style="mix-blend-mode:overlay" opacity="0.25">
      <path fill-rule="evenodd" clip-rule="evenodd" d="M70.8511 99.3171C72.4261 99.9306 74.2221 99.8913 75.8117 99.1264L96.4 89.2197C98.5634 88.1787 99.9392 85.9892 99.9392 83.5871V16.4133C99.9392 14.0112 98.5635 11.8217 96.4001 10.7807L75.8117 0.873695C73.7255 -0.13019 71.2838 0.115699 69.4527 1.44688C69.1912 1.63705 68.942 1.84937 68.7082 2.08335L29.2943 38.0414L12.1264 25.0096C10.5283 23.7964 8.29285 23.8959 6.80855 25.246L1.30225 30.2548C-0.513334 31.9064 -0.515415 34.7627 1.29775 36.4169L16.1863 50L1.29775 63.5832C-0.515415 65.2374 -0.513334 68.0937 1.30225 69.7452L6.80855 74.754C8.29285 76.1042 10.5283 76.2036 12.1264 74.9905L29.2943 61.9586L68.7082 97.9167C69.3317 98.5405 70.0638 99.0104 70.8511 99.3171ZM74.9544 27.2989L45.0483 50L74.9544 72.7012V27.2989Z" fill="url(#paint0_linear)"></path>
    </g>
  </g>
  <g id="emoji" transform="matrix(1.978503, 0, 0, 1.978503, -919.67334, -398.980255)" style="">
    <g id="color" transform="matrix(1, 0, 0, 1, 476.454559, 209.968399)">
      <path fill="#F4AA41" stroke="none" d="M23.5,14.5855l-4.5,1.75l-7.25,8.5l-4.5,10.75l2,5.25c1.2554,3.7911,3.5231,7.1832,7.25,10l2.5-3.3333 c0,0,3.8218,7.7098,10.7384,8.9598c0,0,10.2616,1.936,15.5949-0.8765c3.4203-1.8037,4.4167-4.4167,4.4167-4.4167l3.4167-3.4167 l1.5833,2.3333l2.0833-0.0833l5.4167-7.25L64,37.3355l-0.1667-4.5l-2.3333-5.5l-4.8333-7.4167c0,0-2.6667-4.9167-8.1667-3.9167 c0,0-6.5-4.8333-11.8333-4.0833S32.0833,10.6688,23.5,14.5855z"></path>
      <polygon fill="#EA5A47" stroke="none" points="36,47.2521 32.9167,49.6688 30.4167,49.6688 30.3333,53.5021 31.0833,57.0021 32.1667,58.9188 35,60.4188 39.5833,59.8355 41.1667,58.0855 42.1667,53.8355 41.9167,49.8355 39.9167,50.0855"></polygon>
      <polygon fill="#3F3F3F" stroke="none" points="32.5,36.9188 30.9167,40.6688 33.0833,41.9188 34.3333,42.4188 38.6667,42.5855 41.5833,40.3355 39.8333,37.0855"></polygon>
    </g>
    <g id="hair" transform="matrix(1, 0, 0, 1, 476.454559, 209.968399)"></g>
    <g id="skin" transform="matrix(1, 0, 0, 1, 476.454559, 209.968399)"></g>
    <g id="skin-shadow" transform="matrix(1, 0, 0, 1, 476.454559, 209.968399)"></g>
    <g id="line" transform="matrix(1, 0, 0, 1, 476.454559, 209.968399)">
      <path fill="#000000" stroke="none" d="M29.5059,30.1088c0,0-1.8051,1.2424-2.7484,0.6679c-0.9434-0.5745-1.2424-1.8051-0.6679-2.7484 s1.805-1.2424,2.7484-0.6679S29.5059,30.1088,29.5059,30.1088z"></path>
      <path fill="none" stroke="#000000" stroke-linecap="round" stroke-linejoin="round" stroke-miterlimit="10" stroke-width="2" d="M33.1089,37.006h6.1457c0.4011,0,0.7634,0.2397,0.9203,0.6089l1.1579,2.7245l-2.1792,1.1456 c-0.6156,0.3236-1.3654-0.0645-1.4567-0.754"></path>
      <path fill="none" stroke="#000000" stroke-linecap="round" stroke-linejoin="round" stroke-miterlimit="10" stroke-width="2" d="M34.7606,40.763c-0.1132,0.6268-0.7757,0.9895-1.3647,0.7471l-2.3132-0.952l1.0899-2.9035 c0.1465-0.3901,0.5195-0.6486,0.9362-0.6486"></path>
      <path fill="none" stroke="#000000" stroke-linecap="round" stroke-linejoin="round" stroke-miterlimit="10" stroke-width="2" d="M30.4364,50.0268c0,0-0.7187,8.7934,3.0072,9.9375c2.6459,0.8125,5.1497,0.5324,6.0625-0.25 c0.875-0.75,2.6323-4.4741,1.8267-9.6875"></path>
      <path fill="#000000" stroke="none" d="M44.2636,30.1088c0,0,1.805,1.2424,2.7484,0.6679c0.9434-0.5745,1.2424-1.8051,0.6679-2.7484 c-0.5745-0.9434-1.805-1.2424-2.7484-0.6679C43.9881,27.9349,44.2636,30.1088,44.2636,30.1088z"></path>
      <path fill="none" stroke="#000000" stroke-linecap="round" stroke-linejoin="round" stroke-miterlimit="10" stroke-width="2" d="M25.6245,42.8393c-0.475,3.6024,2.2343,5.7505,4.2847,6.8414c1.1968,0.6367,2.6508,0.5182,3.7176-0.3181l2.581-2.0233l2.581,2.0233 c1.0669,0.8363,2.5209,0.9548,3.7176,0.3181c2.0504-1.0909,4.7597-3.239,4.2847-6.8414"></path>
      <path fill="none" stroke="#000000" stroke-linecap="round" stroke-linejoin="round" stroke-miterlimit="10" stroke-width="2" d="M19.9509,28.3572c-2.3166,5.1597-0.5084,13.0249,0.119,15.3759c0.122,0.4571,0.0755,0.9355-0.1271,1.3631l-1.9874,4.1937 c-0.623,1.3146-2.3934,1.5533-3.331,0.4409c-3.1921-3.7871-8.5584-11.3899-6.5486-16.686 c7.0625-18.6104,15.8677-18.1429,15.8677-18.1429c2.8453-1.9336,13.1042-6.9375,24.8125,0.875c0,0,8.6323-1.7175,14.9375,16.9375 c1.8036,5.3362-3.4297,12.8668-6.5506,16.6442c-0.9312,1.127-2.7162,0.8939-3.3423-0.4272l-1.9741-4.1656 c-0.2026-0.4275-0.2491-0.906-0.1271-1.3631c0.6275-2.3509,2.4356-10.2161,0.119-15.3759"></path>
      <path fill="none" stroke="#000000" stroke-linecap="round" stroke-linejoin="round" stroke-miterlimit="10" stroke-width="2" d="M52.6309,46.4628c0,0-3.0781,6.7216-7.8049,8.2712"></path>
      <path fill="none" stroke="#000000" stroke-linecap="round" stroke-linejoin="round" stroke-miterlimit="10" stroke-width="2" d="M19.437,46.969c0,0,3.0781,6.0823,7.8049,7.632"></path>
      <line x1="36.2078" x2="36.2078" y1="47.3393" y2="44.3093" fill="none" stroke="#000000" stroke-linecap="round" stroke-linejoin="round" stroke-miterlimit="10" stroke-width="2"></line>
    </g>
  </g>
  <mask id="mask0" mask-type="alpha" maskUnits="userSpaceOnUse" x="0" y="0" width="100" height="100">
    <path fill-rule="evenodd" clip-rule="evenodd" d="M70.9119 99.3171C72.4869 99.9307 74.2828 99.8914 75.8725 99.1264L96.4608 89.2197C98.6242 88.1787 100 85.9892 100 83.5872V16.4133C100 14.0113 98.6243 11.8218 96.4609 10.7808L75.8725 0.873756C73.7862 -0.130129 71.3446 0.11576 69.5135 1.44695C69.252 1.63711 69.0028 1.84943 68.769 2.08341L29.3551 38.0415L12.1872 25.0096C10.589 23.7965 8.35363 23.8959 6.86933 25.2461L1.36303 30.2549C-0.452552 31.9064 -0.454633 34.7627 1.35853 36.417L16.2471 50.0001L1.35853 63.5832C-0.454633 65.2374 -0.452552 68.0938 1.36303 69.7453L6.86933 74.7541C8.35363 76.1043 10.589 76.2037 12.1872 74.9905L29.3551 61.9587L68.769 97.9167C69.3925 98.5406 70.1246 99.0104 70.9119 99.3171ZM75.0152 27.2989L45.1091 50.0001L75.0152 72.7012V27.2989Z" fill="white"></path>
  </mask>
</svg>